# xmcd
#
# Track frame offsets:
#	150
#	14246
#	28467
#	43158
#	55186
#	69979
#	83707
#	100130
#	112936
#	126763
#
# Disc length: 1876 seconds
#
# Revision: 0
# Processed by: cddbd v1.5.2PL0 Copyright (c) Steve Scherf et al.
# Submitted via: EasyCDDAExtractor 16.0.6.1
#
DISCID=8607520a
DTITLE=Συλλογικός δίσκος - Ιστορία ρεμπέτικου και λαϊκού 09-4
DYEAR=2007
DGENRE=Ποικίλη
TTITLE0=Πάνου Πόλυ - Άλλα μού λέν' τα μάτια σου [Θεόδ. Δερβενιώτης-Κ. Μάνεσης]
TTITLE1=Καζαντζίδης Στέλιος-Μαρινέλλα - Σήκω χόρεψε κουκλί μου [Στέλιος Καζαντ
TTITLE1=ζίδης]
TTITLE2=Ζαγοραίος Σπύρος-Ανδρεάδου Γιούλα - Άναψε το τσιγάρο [Γερ. Κλουβάτος-Χ
TTITLE2=Βασιλειάδης]
TTITLE3=Λύδια Γιώτα - Συ μού χάραξες πορεία [Απ. Καλδάρας]
TTITLE4=Καζαντζίδης Στέλιος - Εγώ ποτέ δεν αγαπώ [Απ. Καλδάρας-Κ. Βίρβος]
TTITLE5=Λύδια Γιώτα-Πλέσσας Σταύρος - Θα μού βάλεις την κουλούρα [Μ. Χιώτης-Κ.
TTITLE5=Κοφινιώτης]
TTITLE6=Λίντα Μαίρη-Χιώτης Μανώλης - Περασμένες μου αγάπες [Μ. Χιώτης-Ε. Παπαγ
TTITLE6=ιαννοπούλου]
TTITLE7=Αγγελόπουλος Μανώλης - Μιά μελαχροινή τσιγγάνα [Θεόδ. Δερβενιώτης-Ε. Π
TTITLE7=απαγιαννοπούλου]
TTITLE8=Αγγελόπουλος Μανώλης - Ινδιάνα μου γλυκειά(Έλμπι)[Β.Καραπατάκης/Καψάλη
TTITLE8=ς-Χ.Κολοκοτρώνης]
TTITLE9=Αγγελόπουλος Μανώλης - Οι νέοι μάγκες [Γιώργος Λαύκας]
EXTD=
EXTT0=
EXTT1=
EXTT2=
EXTT3=
EXTT4=
EXTT5=
EXTT6=
EXTT7=
EXTT8=
EXTT9=
PLAYORDER=
